<svg width="512" height="512" viewBox="0 0 512 512" fill="none" xmlns="http://www.w3.org/2000/svg">
<circle cx="320" cy="271" r="64" fill="url(#paint0_linear_888254_47)"/>
<path d="M106.187 85.4489C125.482 75.517 388.436 75.517 408.629 85.4489C428.822 95.3808 446.771 178.447 408.629 157.681C370.487 136.914 149.264 136.914 106.187 157.681C63.1087 178.447 86.8914 95.3808 106.187 85.4489Z" fill="url(#paint1_linear_888254_47)"/>
<path fill-rule="evenodd" clip-rule="evenodd" d="M134 174.341C134 168.341 151.509 162.341 173.396 161.341C195.282 160.341 202.695 161.07 207 170.07C207 170.07 230.5 351.07 218.5 379.57C206.5 408.07 134 427.341 134 427.341V332.341H168.046V312.341H134V278.341H168.046V258.341H134V174.341Z" fill="url(#paint2_linear_888254_47)"/>
<defs>
<linearGradient id="paint0_linear_888254_47" x1="320" y1="207" x2="320" y2="335" gradientUnits="userSpaceOnUse">
<stop stop-color="#FAFAFA"/>
<stop offset="1" stop-color="#F9B795"/>
</linearGradient>
<linearGradient id="paint1_linear_888254_47" x1="257.408" y1="85.4489" x2="256.953" y2="392.433" gradientUnits="userSpaceOnUse">
<stop stop-color="#E58250"/>
<stop offset="1" stop-color="#663A24"/>
</linearGradient>
<linearGradient id="paint2_linear_888254_47" x1="177.956" y1="79.049" x2="177.956" y2="427.341" gradientUnits="userSpaceOnUse">
<stop stop-color="#E68250"/>
<stop offset="1" stop-color="#663A24"/>
</linearGradient>
</defs>
</svg>
